<svg xmlns="http://www.w3.org/2000/svg" enable-background="new 0 0 580 398" viewBox="0 0 580 398"><style type="text/css">.st0{fill:none}.st1{opacity:.2}.st2{fill:#545454}.st3{fill:#333}.st4{fill:#1a1a1a}.st5{fill:#4c7070}.st6{fill:#474747}</style><path d="M559.3 390.1h-532.8c-11.4 0-20.7-9.2-20.7-20.7v-348.2c0-11.5 9.2-20.7 20.7-20.7h532.9c11.4 0 20.7 9.2 20.7 20.7v348.3c-.1 11.3-9.4 20.6-20.8 20.6z" class="st0"/><path d="M553.1 397.6h-532.9c-11.4 0-20.7-9.2-20.7-20.7v-348.2c0-11.5 9.3-20.7 20.7-20.7h532.9c11.4 0 20.7 9.2 20.7 20.7v348.3c-.1 11.3-9.3 20.6-20.7 20.6z" class="st1"/><path d="M559.3 390.1h-532.8c-11.4 0-20.7-9.2-20.7-20.7v-348.2c0-11.5 9.2-20.7 20.7-20.7h532.9c11.4 0 20.7 9.2 20.7 20.7v348.3c-.1 11.3-9.4 20.6-20.8 20.6z" class="st2"/><path d="M26.5 387.6c-10 0-18.2-8.1-18.2-18.2v-348.2c0-10.1 8.1-18.2 18.2-18.2h532.9c10 0 18.2 8.1 18.2 18.2v348.3c0 10-8.1 18.2-18.2 18.2h-532.9z" class="st3"/><path d="M26.5 383.8c-7.9 0-14.4-6.5-14.4-14.4v-348.2c0-7.9 6.5-14.4 14.4-14.4h532.9c7.9 0 14.4 6.5 14.4 14.4v348.3c0 7.9-6.5 14.4-14.4 14.4h-532.9z" class="st4"/><path d="M53.6 47h478.6v299.8h-478.6z"/><circle cx="292.9" cy="26.7" r="2.8" class="st5"/><path d="M292.9 25.4c.7 0 1.3.6 1.3 1.3s-.6 1.3-1.3 1.3-1.3-.6-1.3-1.3.6-1.3 1.3-1.3m0-3.1c-2.4 0-4.4 2-4.4 4.4s2 4.4 4.4 4.4 4.4-2 4.4-4.4-2-4.4-4.4-4.4z" class="st6"/><path id="Content" d="M54 48h478v298h-478z"/></svg>